HIERARCHY
ROOT Hips
{
	OFFSET 0.000000 0.000000 0.000000
	CHANNELS 6 Xposition Yposition Zposition Zrotation Yrotation Xrotation 
	JOINT LHipJoint
	{
		OFFSET 0.000000 0.000000 0.000000
		CHANNELS 3 Zrotation Yrotation Xrotation
		JOINT LeftUpLeg
		{
			OFFSET 1.363060 -1.794630 0.839290
			CHANNELS 3 Zrotation Yrotation Xrotation
			JOINT LeftLeg
			{
				OFFSET 2.448110 -6.726130 0.000000
				CHANNELS 3 Zrotation Yrotation Xrotation
				JOINT LeftFoot
				{
					OFFSET 2.562200 -7.039590 0.000000
					CHANNELS 3 Zrotation Yrotation Xrotation
					JOINT LeftToeBase
					{
						OFFSET 0.157640 -0.433110 2.322550
						CHANNELS 3 Zrotation Yrotation Xrotation
						End Site
						{
							OFFSET 0.000000 0.000000 0.000000
						}
					}
				}
			}
		}
	}
	JOINT RHipJoint
	{
		OFFSET 0.000000 0.000000 0.000000
		CHANNELS 3 Zrotation Yrotation Xrotation
		JOINT RightUpLeg
		{
			OFFSET -1.305520 -1.794630 0.839290
			CHANNELS 3 Zrotation Yrotation Xrotation
			JOINT RightLeg
			{
				OFFSET -2.542530 -6.985550 0.000000
				CHANNELS 3 Zrotation Yrotation Xrotation
				JOINT RightFoot
				{
					OFFSET -2.568260 -7.056230 0.000000
					CHANNELS 3 Zrotation Yrotation Xrotation
					JOINT RightToeBase
					{
						OFFSET -0.164730 -0.452590 2.363150
						CHANNELS 3 Zrotation Yrotation Xrotation
						End Site
						{
							OFFSET 0.000000 0.000000 0.000000
						}
					}
				}
			}
		}
	}
}
MOTION
Frames: 11
Frame Time: 0.008333
23.501988 14.994438 2.473412 -136.671193 -78.928317 171.402470 -8.098573 -1.151858 2.529290 -7.355144 0.350726 -90.553593 -1.211431 4.888085 49.883805 1.292599 4.897030 -0.224369 1.320500 -0.000000 -25.801700 10.760187 -2.508935 -2.692132 10.672889 -2.728089 -9.344146 1.290547 -1.819316 35.985703 0.369085 4.880136 0.201107 0.444200 -0.000000 -86.604500
23.294637 14.979861 2.484533 -136.061078 -79.126262 170.815369 -8.065424 -1.088188 2.385566 -7.757239 0.308942 -90.760083 -1.099000 5.074524 51.762530 1.225415 4.495867 -0.943911 1.149900 -0.000000 -24.453601 10.977078 -2.517222 -2.791005 10.468796 -3.561859 -10.471306 0.909491 -2.008395 38.330636 0.265602 4.255604 3.309528 0.589600 -0.000000 -87.612400
23.092095 14.967532 2.495604 -135.420028 -79.375396 170.193867 -8.027371 -1.028550 2.244050 -8.153180 0.201808 -90.829470 -1.003285 5.229036 53.494489 1.182063 4.162576 -1.963591 0.978100 -0.000001 -23.100500 11.191079 -2.485759 -2.911228 10.301794 -4.413844 -11.698264 0.521732 -2.176716 40.788358 0.102834 3.439307 6.556914 0.672000 -0.000000 -87.578199
22.894472 14.957174 2.506599 -134.742291 -79.663896 169.542439 -7.987179 -0.975869 2.108701 -8.524936 0.036658 -90.781304 -0.921591 5.353974 55.082396 1.162571 3.906502 -3.202800 0.812500 0.000000 -21.799600 11.395029 -2.412299 -3.044518 10.180587 -5.242122 -13.014932 0.148934 -2.319923 43.334200 -0.112285 2.465062 9.822403 0.656500 0.000000 -86.359400
22.701625 14.948637 2.517555 -134.024028 -79.976784 168.863085 -7.946844 -0.932295 1.982613 -8.857460 -0.175133 -90.640229 -0.850687 5.452197 56.530815 1.165834 3.731384 -4.574256 0.656501 0.000000 -20.611600 11.582561 -2.298761 -3.183289 10.114884 -6.007549 -14.414764 -0.188161 -2.439003 45.949063 -0.364730 1.375157 12.939028 0.518200 0.000000 -83.982200
22.513351 14.941821 2.528488 -133.261865 -80.296815 168.161438 -7.908153 -0.898296 1.868307 -9.140549 -0.419387 -90.434226 -0.787200 5.527335 57.846750 1.189351 3.635243 -5.992044 0.511300 -0.000000 -19.598100 11.749724 -2.152089 -3.321257 10.113144 -6.681245 -15.896831 -0.476018 -2.540518 48.620460 -0.633878 0.213011 15.725274 0.250800 0.000000 -80.675200
22.329597 14.936765 2.539351 -132.460702 -80.606543 167.446390 -7.872283 -0.873738 1.766748 -9.367813 -0.679550 -90.190281 -0.727899 5.583352 59.038648 1.229412 3.611463 -7.380651 0.376800 0.000000 -18.811700 11.894743 -1.982130 -3.453604 10.183077 -7.240643 -17.463359 -0.711597 -2.635195 51.340977 -0.897509 -0.978993 18.002393 -0.129701 -0.000000 -76.781200
22.150244 14.933689 2.550262 -131.609004 -80.884749 166.710797 -7.840279 -0.858240 1.677099 -9.537134 -0.930079 -89.934712 -0.670783 5.625080 60.116337 1.280197 3.643519 -8.680349 0.252300 0.000000 -18.277600 12.018606 -1.799551 -3.575518 10.334599 -7.669851 -19.120508 -0.902931 -2.733790 54.103380 -1.139257 -2.171063 19.662577 -0.590700 0.000000 -72.759101
21.975308 14.932574 2.561149 -130.734827 -81.121778 165.984002 -7.813197 -0.851224 1.597698 -9.652606 -1.158142 -89.686035 -0.614507 5.656535 61.090020 1.336877 3.717620 -9.854756 0.137900 0.000000 -18.001300 12.122420 -1.613187 -3.685169 10.567335 -7.962121 -20.872167 -1.062718 -2.846311 56.906211 -1.345985 -3.323580 20.599403 -1.082000 -0.000000 -68.924500
21.804351 14.933674 2.572060 -129.849494 -81.304433 165.277087 -7.792358 -0.852680 1.524668 -9.721649 -1.339663 -89.456581 -0.559813 5.682279 61.969398 1.393430 3.811208 -10.888476 0.033400 -0.000001 -17.947900 12.208181 -1.429610 -3.780368 10.883178 -8.115277 -22.721167 -1.205824 -2.978688 59.745498 -1.512493 -4.405808 20.785842 -1.551000 0.000000 -65.373100
21.637727 14.937099 2.583028 -128.998593 -81.429964 164.628995 -7.779233 -0.862571 1.453466 -9.757183 -1.460947 -89.248287 -0.508488 5.705822 62.762363 1.445464 3.905208 -11.787126 -0.061500 -0.000000 -18.069200 12.276640 -1.252361 -3.861604 11.274699 -8.137093 -24.664722 -1.344261 -3.134169 62.613948 -1.637037 -5.386632 20.213673 -1.947000 0.000000 -62.143400
